<?xml version="1.0" encoding="UTF-8"?>
<svg width="1425px" height="587px" viewBox="0 0 1425 587" version="1.1" xmlns="http://www.w3.org/2000/svg" xmlns:xlink="http://www.w3.org/1999/xlink">
    <title>Untitled</title>
    <g ids="Page-1" stroke="none" stroke-width="1" fill="none" fill-rule="evenodd">
        <g ids="Group11" transform="translate(480.000000, 272.000000) rotate(11.000000) translate(-480.000000, -272.000000) translate(462.000000, 207.000000)" fill="#D8D8D8" stroke="#979797">
            <rect ids="Rectangle" x="0.5" y="0.5" width="35" height="27"></rect>
            <rect ids="Rectangle-Copy-5" x="0.5" y="34.5" width="35" height="27"></rect>
            <rect ids="Rectangle-Copy-6" x="0.5" y="68.5" width="35" height="27"></rect>
            <rect ids="Rectangle-Copy-7" x="0.5" y="102.5" width="35" height="27"></rect>
        </g>
        <g ids="Group10" transform="translate(541.000000, 293.000000) rotate(10.000000) translate(-541.000000, -293.000000) translate(523.000000, 211.000000)" fill="#D8D8D8" stroke="#979797">
            <rect ids="Rectangle" x="0.5" y="0.5" width="35" height="27"></rect>
            <rect ids="Rectangle-Copy" x="0.5" y="34.5" width="35" height="27"></rect>
            <rect ids="Rectangle-Copy-2" x="0.5" y="68.5" width="35" height="27"></rect>
            <rect ids="Rectangle-Copy-3" x="0.5" y="102.5" width="35" height="27"></rect>
            <rect ids="Rectangle-Copy-4" x="0.5" y="136.5" width="35" height="27"></rect>
        </g>
        <g ids="Group8" transform="translate(785.732545, 175.249075) rotate(3.000000) translate(-785.732545, -175.249075) translate(456.879202, 156.077191)" fill="#D8D8D8" fill-rule="nonzero" stroke="#979797">
            <rect ids="Rectangle-Copy-21" x="630.706686" y="0.331001202" width="27" height="35"></rect>
            <rect ids="Rectangle-Copy-25" x="595.64998" y="0.165500601" width="27" height="35"></rect>
            <rect ids="Rectangle-Copy-26" x="560.593274" y="0" width="27" height="35"></rect>
            <rect ids="Rectangle-Copy-29" x="525.588905" y="0.83312893" width="27" height="35"></rect>
            <rect ids="Rectangle-Copy-28" x="490.532199" y="0.66762833" width="27" height="35"></rect>
            <rect ids="Rectangle-Copy-27" x="455.475493" y="0.50212773" width="27" height="35"></rect>
            <rect ids="Rectangle-Copy-35" x="420.471124" y="1.33525667" width="27" height="35"></rect>
            <rect ids="Rectangle-Copy-34" x="385.414418" y="1.16975606" width="27" height="35"></rect>
            <rect ids="Rectangle-Copy-33" x="350.357712" y="1.00425546" width="27" height="35"></rect>
            <rect ids="Rectangle-Copy-32" x="315.353343" y="1.8373844" width="27" height="35"></rect>
            <rect ids="Rectangle-Copy-31" x="280.296637" y="1.6718838" width="27" height="35"></rect>
            <rect ids="Rectangle-Copy-30" x="245.239932" y="1.5063832" width="27" height="35"></rect>
            <rect ids="Rectangle-Copy-41" x="210.235562" y="2.33951213" width="27" height="35"></rect>
            <rect ids="Rectangle-Copy-40" x="175.178856" y="2.17401153" width="27" height="35"></rect>
            <rect ids="Rectangle-Copy-39" x="140.122151" y="2.00851093" width="27" height="35"></rect>
            <rect ids="Rectangle-Copy-38" x="105.117781" y="2.84163986" width="27" height="35"></rect>
            <rect ids="Rectangle-Copy-37" x="70.0610753" y="2.67613926" width="27" height="35"></rect>
            <rect ids="Rectangle-Copy-36" x="35.0043697" y="2.51063866" width="27" height="35"></rect>
            <rect ids="Rectangle-Copy-42" x="0" y="3.34376759" width="27" height="35"></rect>
        </g>
        <g ids="Group9" transform="translate(844.682524, 441.968751) rotate(3.000000) translate(-844.682524, -441.968751) translate(521.780909, 423.980294)" fill="#D8D8D8" fill-rule="nonzero" stroke="#979797">
            <rect ids="Rectangle-Copy-22" x="584.749426" y="0.52351146" width="27" height="35"></rect>
            <rect ids="Rectangle-Copy-43" x="618.80323" y="0.74157194" width="27" height="35"></rect>
            <rect ids="Rectangle-Copy-45" x="514.644561" y="0.192062407" width="27" height="35"></rect>
            <rect ids="Rectangle-Copy-44" x="549.696993" y="0.357786933" width="27" height="35"></rect>
            <rect ids="Rectangle-Copy-47" x="444.592031" y="0.85924289" width="27" height="35"></rect>
            <rect ids="Rectangle-Copy-46" x="480.643093" y="0.97263146" width="27" height="35"></rect>
            <rect ids="Rectangle-Copy-53" x="374.487165" y="0.52779384" width="27" height="35"></rect>
            <rect ids="Rectangle-Copy-52" x="409.539598" y="0.69351836" width="27" height="35"></rect>
            <rect ids="Rectangle-Copy-51" x="304.382299" y="0.196344788" width="27" height="35"></rect>
            <rect ids="Rectangle-Copy-50" x="339.434732" y="0.362069313" width="27" height="35"></rect>
            <rect ids="Rectangle-Copy-49" x="238.324288" y="0.65418145" width="27" height="35"></rect>
            <rect ids="Rectangle-Copy-48" x="270.380832" y="0.97691384" width="27" height="35"></rect>
            <rect ids="Rectangle-Copy-59" x="170.216681" y="0.218060482" width="27" height="35"></rect>
            <rect ids="Rectangle-Copy-58" x="204.270484" y="0.436120964" width="27" height="35"></rect>
            <rect ids="Rectangle-Copy-57" x="102.16141" y="0.78056905" width="27" height="35"></rect>
            <rect ids="Rectangle-Copy-56" x="136.162877" y="-5.13401983e-15" width="27" height="35"></rect>
            <rect ids="Rectangle-Copy-55" x="34.0538034" y="0.344448089" width="27" height="35"></rect>
            <rect ids="Rectangle-Copy-60" x="2.99359735e-14" y="0.126387607" width="27" height="35"></rect>
            <rect ids="Rectangle-Copy-54" x="68.1076067" y="0.56250857" width="27" height="35"></rect>
        </g>
        <g ids="Group2" transform="translate(197.484667, 284.923216) rotate(18.000000) translate(-197.484667, -284.923216) translate(57.627242, 266.017115)" fill="#D8D8D8" fill-rule="nonzero" stroke="#979797">
            <rect ids="Rectangle-Copy-54-Copy-11" x="2.64313611e-14" y="0.533797642" width="28" height="36"></rect>
            <rect ids="Rectangle-Copy-54-Copy-12" x="36.686165" y="0.179824518" width="28" height="36"></rect>
            <rect ids="Rectangle-Copy-54-Copy-13" x="72.4212735" y="0.134868388" width="28" height="36"></rect>
            <rect ids="Rectangle-Copy-54-Copy-14" x="108.156382" y="0.089912259" width="28" height="36"></rect>
            <rect ids="Rectangle-Copy-54-Copy-15" x="143.89149" y="0.0449561295" width="28" height="36"></rect>
            <rect ids="Rectangle-Copy-54-Copy-16" x="179.626599" y="2.7151757e-14" width="28" height="36"></rect>
            <rect ids="Rectangle-Copy-54-Copy-17" x="215.670724" y="0.906100387" width="28" height="36"></rect>
            <rect ids="Rectangle-Copy-54-Copy-18" x="251.71485" y="1.81220077" width="28" height="36"></rect>
        </g>
        <rect ids="Rectangle" x="0" y="0" width="1425" height="587"></rect>
        <g ids="Group3" transform="translate(361.778096, 241.274703) rotate(8.000000) translate(-361.778096, -241.274703) translate(344.101449, 197.147201)" fill="#D8D8D8" fill-rule="nonzero" stroke="#979797">
            <rect ids="Rectangle-Copy-8" x="0.353293855" y="31.2550025" width="35" height="25"></rect>
            <rect ids="Rectangle-Copy-8-Copy" x="-1.66715846e-15" y="-8.01574929e-15" width="35" height="25"></rect>
            <rect ids="Rectangle-Copy-9" x="0.353293855" y="63.2550025" width="35" height="25"></rect>
        </g>
        <g ids="Group8" transform="translate(414.017583, 243.890693) rotate(8.000000) translate(-414.017583, -243.890693) translate(396.129509, 185.428871)" fill="#D8D8D8" fill-rule="nonzero" stroke="#979797">
            <rect ids="Rectangle-Copy-10" x="0.42285346" y="0" width="35" height="25"></rect>
            <rect ids="Rectangle-Copy-20" x="0.77614731" y="31.2550025" width="35" height="25"></rect>
            <rect ids="Rectangle-Copy-23" x="0" y="61.6589101" width="35" height="25"></rect>
            <rect ids="Rectangle-Copy-24" x="0.214120754" y="91.9236446" width="35" height="25"></rect>
        </g>
        <g ids="Group9" transform="translate(899.175834, 320.503217) rotate(3.000000) translate(-899.175834, -320.503217) translate(603.598539, 230.658329)" fill="#D8D8D8" fill-rule="nonzero" stroke="#979797">
            <rect ids="Rectangle" x="555.80947" y="1.49513134" width="35" height="28"></rect>
            <rect ids="Rectangle-Copy-15" x="497.679614" y="0.53609866" width="35" height="28"></rect>
            <rect ids="Rectangle-Copy-11" x="555.591634" y="35.5532074" width="35" height="28"></rect>
            <rect ids="Rectangle-Copy-16" x="497.461777" y="34.5941748" width="35" height="28"></rect>
            <rect ids="Rectangle-Copy-12" x="555.373797" y="69.6112835" width="35" height="28"></rect>
            <rect ids="Rectangle-Copy-17" x="497.7673" y="78.6385462" width="35" height="28"></rect>
            <rect ids="Rectangle-Copy-13" x="556.15459" y="103.617024" width="35" height="28"></rect>
            <rect ids="Rectangle-Copy-18" x="498.548093" y="112.644286" width="35" height="28"></rect>
            <rect ids="Rectangle-Copy-14" x="555.936754" y="137.6751" width="35" height="28"></rect>
            <rect ids="Rectangle-Copy-61" x="498.330257" y="146.702362" width="35" height="28"></rect>
            <rect ids="Rectangle-Copy-65" x="450.587018" y="0" width="35" height="28"></rect>
            <rect ids="Rectangle-Copy-64" x="450.369181" y="34.0580761" width="35" height="28"></rect>
            <rect ids="Rectangle-Copy-63" x="450.674704" y="78.1024475" width="35" height="28"></rect>
            <rect ids="Rectangle-Copy-19" x="451.455497" y="112.108188" width="35" height="28"></rect>
            <rect ids="Rectangle-Copy-62" x="451.237661" y="146.166264" width="35" height="28"></rect>
            <rect ids="Rectangle-Copy-70" x="404.545387" y="0.410194918" width="35" height="28"></rect>
            <rect ids="Rectangle-Copy-69" x="404.327551" y="34.468271" width="35" height="28"></rect>
            <rect ids="Rectangle-Copy-97" x="497.679614" y="0.53609866" width="35" height="28"></rect>
            <rect ids="Rectangle-Copy-96" x="497.461777" y="34.5941748" width="35" height="28"></rect>
            <rect ids="Rectangle-Copy-95" x="450.587018" y="0" width="35" height="28"></rect>
            <rect ids="Rectangle-Copy-94" x="450.369181" y="34.0580761" width="35" height="28"></rect>
            <rect ids="Rectangle-Copy-93" x="404.545387" y="0.410194918" width="35" height="28"></rect>
            <rect ids="Rectangle-Copy-92" x="404.327551" y="34.468271" width="35" height="28"></rect>
            <rect ids="Rectangle-Copy-103" x="361.551981" y="1.6620115" width="35" height="28"></rect>
            <rect ids="Rectangle-Copy-102" x="361.334145" y="35.7200876" width="35" height="28"></rect>
            <rect ids="Rectangle-Copy-101" x="314.459385" y="1.12591284" width="35" height="28"></rect>
            <rect ids="Rectangle-Copy-100" x="314.241549" y="35.1839889" width="35" height="28"></rect>
            <rect ids="Rectangle-Copy-99" x="268.417755" y="1.53610776" width="35" height="28"></rect>
            <rect ids="Rectangle-Copy-98" x="268.199918" y="35.5941839" width="35" height="28"></rect>
            <rect ids="Rectangle-Copy-109" x="224.321047" y="0.84300123" width="35" height="28"></rect>
            <rect ids="Rectangle-Copy-108" x="224.103211" y="34.9010773" width="35" height="28"></rect>
            <rect ids="Rectangle-Copy-107" x="177.228451" y="0.306902568" width="35" height="28"></rect>
            <rect ids="Rectangle-Copy-106" x="177.010615" y="34.3649787" width="35" height="28"></rect>
            <rect ids="Rectangle-Copy-105" x="131.186821" y="0.71709749" width="35" height="28"></rect>
            <rect ids="Rectangle-Copy-104" x="130.968984" y="34.7751736" width="35" height="28"></rect>
            <rect ids="Rectangle-Copy-115" x="90.1383379" y="0.86561262" width="35" height="28"></rect>
            <rect ids="Rectangle-Copy-114" x="89.9205014" y="34.9236887" width="35" height="28"></rect>
            <rect ids="Rectangle-Copy-113" x="44.0443714" y="0.277178005" width="35" height="28"></rect>
            <rect ids="Rectangle-Copy-112" x="43.8265349" y="34.3352541" width="35" height="28"></rect>
            <rect ids="Rectangle-Copy-111" x="0" y="0.58270101" width="35" height="28"></rect>
            <rect ids="Rectangle-Copy-110" x="0.78079298" y="34.5884411" width="35" height="28"></rect>
            <rect ids="Rectangle-Copy-119" x="43.3951081" y="83.4251092" width="35" height="28"></rect>
            <rect ids="Rectangle-Copy-118" x="43.1772716" y="117.483185" width="35" height="28"></rect>
            <rect ids="Rectangle-Copy-117" x="1.34799576" y="83.6259603" width="35" height="28"></rect>
            <rect ids="Rectangle-Copy-116" x="2.12878874" y="117.6317" width="35" height="28"></rect>
            <rect ids="Rectangle-Copy-121" x="42.959435" y="151.541261" width="35" height="28"></rect>
            <rect ids="Rectangle-Copy-120" x="1.91095218" y="151.689776" width="35" height="28"></rect>
            <rect ids="Rectangle-Copy-68" x="404.633074" y="78.5126425" width="35" height="28"></rect>
            <rect ids="Rectangle-Copy-67" x="405.413867" y="112.518383" width="35" height="28"></rect>
            <rect ids="Rectangle-Copy-66" x="405.19603" y="146.576459" width="35" height="28"></rect>
            <rect ids="Rectangle-Copy-79" x="360.641038" y="79.816795" width="35" height="28"></rect>
            <rect ids="Rectangle-Copy-78" x="361.421831" y="113.822535" width="35" height="28"></rect>
            <rect ids="Rectangle-Copy-77" x="361.203995" y="147.880611" width="35" height="28"></rect>
            <rect ids="Rectangle-Copy-76" x="313.548442" y="79.2806963" width="35" height="28"></rect>
            <rect ids="Rectangle-Copy-75" x="314.329235" y="113.286436" width="35" height="28"></rect>
            <rect ids="Rectangle-Copy-74" x="314.111399" y="147.344513" width="35" height="28"></rect>
            <rect ids="Rectangle-Copy-73" x="267.506812" y="79.6908913" width="35" height="28"></rect>
            <rect ids="Rectangle-Copy-72" x="268.287605" y="113.696631" width="35" height="28"></rect>
            <rect ids="Rectangle-Copy-71" x="268.069768" y="147.754707" width="35" height="28"></rect>
            <rect ids="Rectangle-Copy-88" x="224.513406" y="80.9427078" width="35" height="28"></rect>
            <rect ids="Rectangle-Copy-87" x="225.294199" y="114.948448" width="35" height="28"></rect>
            <rect ids="Rectangle-Copy-86" x="225.076362" y="149.006524" width="35" height="28"></rect>
            <rect ids="Rectangle-Copy-85" x="177.42081" y="80.4066092" width="35" height="28"></rect>
            <rect ids="Rectangle-Copy-84" x="178.201603" y="114.412349" width="35" height="28"></rect>
            <rect ids="Rectangle-Copy-83" x="177.983766" y="148.470425" width="35" height="28"></rect>
            <rect ids="Rectangle-Copy-82" x="133.428774" y="81.7107617" width="35" height="28"></rect>
            <rect ids="Rectangle-Copy-81" x="134.209567" y="115.716502" width="35" height="28"></rect>
            <rect ids="Rectangle-Copy-80" x="133.991731" y="149.774578" width="35" height="28"></rect>
            <rect ids="Rectangle-Copy-91" x="91.4339977" y="82.9102423" width="35" height="28"></rect>
            <rect ids="Rectangle-Copy-90" x="92.2147907" y="116.915982" width="35" height="28"></rect>
            <rect ids="Rectangle-Copy-89" x="91.9969541" y="150.974059" width="35" height="28"></rect>
        </g>
        <g ids="Group4" transform="translate(245.251845, 222.167512) rotate(8.000000) translate(-245.251845, -222.167512) translate(158.080282, 191.145613)" fill="#D8D8D8" fill-rule="nonzero" stroke="#979797">
            <rect ids="Rectangle-Copy-54-Copy-19" x="138.343127" y="0.669086938" width="36" height="28"></rect>
            <rect ids="Rectangle-Copy-54-Copy-20" x="92.8068523" y="1.38428502e-14" width="36" height="28"></rect>
            <rect ids="Rectangle-Copy-54-Copy-23" x="47.4097506" y="0.321181131" width="36" height="28"></rect>
            <rect ids="Rectangle-Copy-54-Copy-21" x="137.984499" y="34.0437987" width="36" height="28"></rect>
            <rect ids="Rectangle-Copy-54-Copy-22" x="92.4482242" y="33.3747118" width="36" height="28"></rect>
            <rect ids="Rectangle-Copy-54-Copy-24" x="47.0511225" y="33.6958929" width="36" height="28"></rect>
            <rect ids="Rectangle-Copy-54-Copy-25" x="-2.19697704e-14" y="15.0628076" width="36" height="28"></rect>
        </g>
        <g ids="Group1" transform="translate(239.709847, 151.518877) rotate(3.000000) translate(-239.709847, -151.518877) translate(88.032620, 133.351249)" fill="#D8D8D8" fill-rule="nonzero" stroke="#979797">
            <rect ids="Rectangle-Copy-54-Copy-2" x="2.14843962e-14" y="0.794911639" width="27" height="35"></rect>
            <rect ids="Rectangle-Copy-54-Copy-3" x="33.0594466" y="1.06508415" width="27" height="35"></rect>
            <rect ids="Rectangle-Copy-54-Copy-4" x="66.1188931" y="1.33525667" width="27" height="35"></rect>
            <rect ids="Rectangle-Copy-54-Copy-5" x="101.123263" y="0.502127732" width="27" height="35"></rect>
            <rect ids="Rectangle-Copy-54-Copy-6" x="136.179968" y="0.667628333" width="27" height="35"></rect>
            <rect ids="Rectangle-Copy-54-Copy-7" x="171.236674" y="0.833128934" width="27" height="35"></rect>
            <rect ids="Rectangle-Copy-54-Copy-8" x="206.241044" y="7.98197187e-15" width="27" height="35"></rect>
            <rect ids="Rectangle-Copy-54-Copy-9" x="241.297749" y="0.165500601" width="27" height="35"></rect>
            <rect ids="Rectangle-Copy-54-Copy-10" x="276.354455" y="0.331001202" width="27" height="35"></rect>
        </g>
    </g>
</svg>