<?xml version="1.0" encoding="UTF-8"?>
<svg width="1425px" height="587px" viewBox="0 0 1425 587" version="1.1" xmlns="http://www.w3.org/2000/svg" xmlns:xlink="http://www.w3.org/1999/xlink">
    <title>Untitled</title>
    <g id="Page-1" stroke="none" stroke-width="1" fill="none" fill-rule="evenodd">
        <rect id="Rectangle" x="0" y="0" width="1425" height="587"></rect>
        <g id="GroupF" transform="translate(844.682524, 441.968751) rotate(3.000000) translate(-844.682524, -441.968751) translate(521.780909, 423.980294)" fill="#D8D8D8" fill-rule="nonzero" stroke="#979797">
            <rect id="F-19" x="618.80323" y="0.74157194" width="27" height="35"></rect>
            <rect id="F-18" x="584.749426" y="0.52351146" width="27" height="35"></rect>
            <rect id="F-17" x="549.696993" y="0.357786933" width="27" height="35"></rect>
            <rect id="F-16" x="514.644561" y="0.192062407" width="27" height="35"></rect>
            <rect id="F-15" x="480.643093" y="0.97263146" width="27" height="35"></rect>
            <rect id="F-14" x="444.592031" y="0.85924289" width="27" height="35"></rect>
            <rect id="F-13" x="409.539598" y="0.69351836" width="27" height="35"></rect>
            <rect id="F-12" x="374.487165" y="0.52779384" width="27" height="35"></rect>
            <rect id="F-11" x="339.434732" y="0.362069313" width="27" height="35"></rect>
            <rect id="F-10" x="304.382299" y="0.196344788" width="27" height="35"></rect>
            <rect id="F-9" x="270.380832" y="0.97691384" width="27" height="35"></rect>
            <rect id="F-8" x="238.324288" y="0.65418145" width="27" height="35"></rect>
            <rect id="F-7" x="204.270484" y="0.436120964" width="27" height="35"></rect>
            <rect id="F-6" x="170.216681" y="0.218060482" width="27" height="35"></rect>
            <rect id="F-5" x="136.162877" y="4.80480083e-14" width="27" height="35"></rect>
            <rect id="F-4" x="102.16141" y="0.78056905" width="27" height="35"></rect>
            <rect id="F-3" x="68.1076067" y="0.56250857" width="27" height="35"></rect>
            <rect id="F-2" x="34.0538034" y="0.344448089" width="27" height="35"></rect>
            <rect id="F-1" x="-8.24959458e-14" y="0.126387607" width="27" height="35"></rect>
        </g>
        <g id="GroupE3" transform="translate(899.175834, 320.503217) rotate(3.000000) translate(-899.175834, -320.503217) translate(603.598539, 230.658329)" fill="#D8D8D8" fill-rule="nonzero" stroke="#979797">
            <rect id="E-66" x="555.80947" y="1.49513134" width="35" height="28"></rect>
            <rect id="E-67" x="555.591634" y="35.5532074" width="35" height="28"></rect>
            <rect id="E-68" x="555.373797" y="69.6112835" width="35" height="28"></rect>
            <rect id="E-63" x="497.7673" y="78.6385462" width="35" height="28"></rect>
            <rect id="E-69" x="556.15459" y="103.617024" width="35" height="28"></rect>
            <rect id="E-62" x="498.548093" y="112.644286" width="35" height="28"></rect>
            <rect id="E-70" x="555.936754" y="137.6751" width="35" height="28"></rect>
            <rect id="E-61" x="498.330257" y="146.702362" width="35" height="28"></rect>
            <rect id="E-58" x="450.674704" y="78.1024475" width="35" height="28"></rect>
            <rect id="E-59" x="451.455497" y="112.108188" width="35" height="28"></rect>
            <rect id="E-60" x="451.237661" y="146.166264" width="35" height="28"></rect>
            <rect id="E-65" x="497.679614" y="0.53609866" width="35" height="28"></rect>
            <rect id="E-64" x="497.461777" y="34.5941748" width="35" height="28"></rect>
            <rect id="E-56" x="450.587018" y="0" width="35" height="28"></rect>
            <rect id="E-57" x="450.369181" y="34.0580761" width="35" height="28"></rect>
            <rect id="E-55" x="404.545387" y="0.410194918" width="35" height="28"></rect>
            <rect id="E-54" x="404.327551" y="34.468271" width="35" height="28"></rect>
            <rect id="E-54" x="361.551981" y="1.6620115" width="35" height="28"></rect>
            <rect id="E-53" x="361.334145" y="35.7200876" width="35" height="28"></rect>
            <rect id="E-45" x="314.459385" y="1.12591284" width="35" height="28"></rect>
            <rect id="E-46" x="314.241549" y="35.1839889" width="35" height="28"></rect>
            <rect id="E-44" x="268.417755" y="1.53610776" width="35" height="28"></rect>
            <rect id="E-43" x="268.199918" y="35.5941839" width="35" height="28"></rect>
            <rect id="E-35" x="224.321047" y="0.84300123" width="35" height="28"></rect>
            <rect id="E-36" x="224.103211" y="34.9010773" width="35" height="28"></rect>
            <rect id="E-34" x="177.228451" y="0.306902568" width="35" height="28"></rect>
            <rect id="E-33" x="177.010615" y="34.3649787" width="35" height="28"></rect>
            <rect id="E-25" x="131.186821" y="0.71709749" width="35" height="28"></rect>
            <rect id="E-26" x="130.968984" y="34.7751736" width="35" height="28"></rect>
            <rect id="E-24" x="90.1383379" y="0.86561262" width="35" height="28"></rect>
            <rect id="E-23" x="89.9205014" y="34.9236887" width="35" height="28"></rect>
            <rect id="E-15" x="44.0443714" y="0.277178005" width="35" height="28"></rect>
            <rect id="E-16" x="43.8265349" y="34.3352541" width="35" height="28"></rect>
            <rect id="E-14" x="0" y="0.58270101" width="35" height="28"></rect>
            <rect id="E-13" x="0.78079298" y="34.5884411" width="35" height="28"></rect>
            <rect id="E-17" x="43.3951081" y="83.4251092" width="35" height="28"></rect>
            <rect id="E-18" x="43.1772716" y="117.483185" width="35" height="28"></rect>
            <rect id="E-12" x="1.34799576" y="83.6259603" width="35" height="28"></rect>
            <rect id="E-11" x="2.12878874" y="117.6317" width="35" height="28"></rect>
            <rect id="E-19" x="42.959435" y="151.541261" width="35" height="28"></rect>
            <rect id="E-10" x="1.91095218" y="151.689776" width="35" height="28"></rect>
            <rect id="E-53" x="404.633074" y="78.5126425" width="35" height="28"></rect>
            <rect id="E-52" x="405.413867" y="112.518383" width="35" height="28"></rect>
            <rect id="E-51" x="405.19603" y="146.576459" width="35" height="28"></rect>
            <rect id="E-52" x="360.641038" y="79.816795" width="35" height="28"></rect>
            <rect id="E-51" x="361.421831" y="113.822535" width="35" height="28"></rect>
            <rect id="E-50" x="361.203995" y="147.880611" width="35" height="28"></rect>
            <rect id="E-47" x="313.548442" y="79.2806963" width="35" height="28"></rect>
            <rect id="E-48" x="314.329235" y="113.286436" width="35" height="28"></rect>
            <rect id="E-49" x="314.111399" y="147.344513" width="35" height="28"></rect>
            <rect id="E-42" x="267.506812" y="79.6908913" width="35" height="28"></rect>
            <rect id="E-41" x="268.287605" y="113.696631" width="35" height="28"></rect>
            <rect id="E-40" x="268.069768" y="147.754707" width="35" height="28"></rect>
            <rect id="E-37" x="224.513406" y="80.9427078" width="35" height="28"></rect>
            <rect id="E-38" x="225.294199" y="114.948448" width="35" height="28"></rect>
            <rect id="E-39" x="225.076362" y="149.006524" width="35" height="28"></rect>
            <rect id="E-32" x="177.42081" y="80.4066092" width="35" height="28"></rect>
            <rect id="E-31" x="178.201603" y="114.412349" width="35" height="28"></rect>
            <rect id="E-30" x="177.983766" y="148.470425" width="35" height="28"></rect>
            <rect id="E-27" x="133.428774" y="81.7107617" width="35" height="28"></rect>
            <rect id="E-28" x="134.209567" y="115.716502" width="35" height="28"></rect>
            <rect id="E-29" x="133.991731" y="149.774578" width="35" height="28"></rect>
            <rect id="E-22" x="91.4339977" y="82.9102423" width="35" height="28"></rect>
            <rect id="E-21" x="92.2147907" y="116.915982" width="35" height="28"></rect>
            <rect id="E-20" x="91.9969541" y="150.974059" width="35" height="28"></rect>
        </g>
        <g id="GroupE2" transform="translate(541.000000, 293.000000) rotate(10.000000) translate(-541.000000, -293.000000) translate(523.000000, 211.000000)" fill="#D8D8D8" stroke="#979797">
            <rect id="E-9" x="0.5" y="0.5" width="35" height="27"></rect>
            <rect id="E-8" x="0.5" y="34.5" width="35" height="27"></rect>
            <rect id="E-7" x="0.5" y="68.5" width="35" height="27"></rect>
            <rect id="E-6" x="0.5" y="102.5" width="35" height="27"></rect>
            <rect id="E-5" x="0.5" y="136.5" width="35" height="27"></rect>
        </g>
        <g id="GroupE" transform="translate(480.000000, 272.000000) rotate(11.000000) translate(-480.000000, -272.000000) translate(462.000000, 207.000000)" fill="#D8D8D8" stroke="#979797">
            <rect id="E-4" x="0.5" y="0.5" width="35" height="27"></rect>
            <rect id="E-3" x="0.5" y="34.5" width="35" height="27"></rect>
            <rect id="E-2" x="0.5" y="68.5" width="35" height="27"></rect>
            <rect id="E-1" x="0.5" y="102.5" width="35" height="27"></rect>
        </g>
        <g id="GroupD" transform="translate(785.719553, 175.496986) rotate(3.000000) translate(-785.719553, -175.496986) translate(456.866210, 156.076851)" fill="#D8D8D8" fill-rule="nonzero" stroke="#979797">
            <rect id="D-19" x="630.706686" y="0.331001202" width="27" height="35"></rect>
            <rect id="D-18" x="595.64998" y="0.165500601" width="27" height="35"></rect>
            <rect id="D-17" x="560.593274" y="-1.79952359e-14" width="27" height="35"></rect>
            <rect id="D-16" x="525.588905" y="0.83312893" width="27" height="35"></rect>
            <rect id="D-15" x="490.532199" y="0.66762833" width="27" height="35"></rect>
            <rect id="D-14" x="455.475493" y="0.50212773" width="27" height="35"></rect>
            <rect id="D-13" x="420.471124" y="1.33525667" width="27" height="35"></rect>
            <rect id="D-12" x="385.414418" y="1.16975606" width="27" height="35"></rect>
            <rect id="D-11" x="350.357712" y="1.00425546" width="27" height="35"></rect>
            <rect id="D-10" x="315.353343" y="1.8373844" width="27" height="35"></rect>
            <rect id="D-9" x="280.296637" y="1.6718838" width="27" height="35"></rect>
            <rect id="D-8" x="245.239932" y="1.5063832" width="27" height="35"></rect>
            <rect id="D-7" x="210.235562" y="2.33951213" width="27" height="35"></rect>
            <rect id="D-6" x="175.178856" y="2.17401153" width="27" height="35"></rect>
            <rect id="D-5" x="140.122151" y="2.00851093" width="27" height="35"></rect>
            <rect id="D-4" x="105.170117" y="3.84026939" width="27" height="35"></rect>
            <rect id="D-3" x="70.0610753" y="2.67613926" width="27" height="35"></rect>
            <rect id="D-2" x="35.0043697" y="2.51063866" width="27" height="35"></rect>
            <rect id="D-1" x="-4.28367717e-14" y="3.34376759" width="27" height="35"></rect>
        </g>
        <g id="GroupC" transform="translate(197.402191, 284.677051) rotate(18.000000) translate(-197.402191, -284.677051) translate(57.390258, 265.562322)" fill="#D8D8D8" fill-rule="nonzero" stroke="#979797">
            <rect id="C-1" x="2.94918683e-14" y="2.76076156e-14" width="28" height="36"></rect>
            <rect id="C-2" x="36.995182" y="0.597083392" width="28" height="36"></rect>
            <rect id="C-3" x="72.7302905" y="0.552127263" width="28" height="36"></rect>
            <rect id="C-4" x="108.465399" y="0.507171133" width="28" height="36"></rect>
            <rect id="C-5" x="144.200507" y="0.462215004" width="28" height="36"></rect>
            <rect id="C-6" x="179.935616" y="0.417258874" width="28" height="36"></rect>
            <rect id="C-7" x="215.979741" y="1.32335926" width="28" height="36"></rect>
            <rect id="C-8" x="252.023867" y="2.22945965" width="28" height="36"></rect>
        </g>
        <g id="GroupB3" transform="translate(414.017583, 243.890693) rotate(8.000000) translate(-414.017583, -243.890693) translate(396.129509, 185.428871)" fill="#D8D8D8" fill-rule="nonzero" stroke="#979797">
            <rect id="B-14" x="0.42285346" y="0" width="35" height="25"></rect>
            <rect id="B-13" x="0.77614731" y="31.2550025" width="35" height="25"></rect>
            <rect id="B-12" x="0" y="61.6589101" width="35" height="25"></rect>
            <rect id="B-11" x="0.214120754" y="91.9236446" width="35" height="25"></rect>
        </g>
        <g id="GroupB2" transform="translate(361.778096, 241.274703) rotate(8.000000) translate(-361.778096, -241.274703) translate(344.101449, 197.147201)" fill="#D8D8D8" fill-rule="nonzero" stroke="#979797">
            <rect id="B-10" x="0.353293855" y="63.2550025" width="35" height="25"></rect>
            <rect id="B-9" x="0.353293855" y="31.2550025" width="35" height="25"></rect>
            <rect id="B-8" x="-1.99728208e-15" y="-1.02285343e-14" width="35" height="25"></rect>
        </g>
        <g id="GroupB1" transform="translate(245.251845, 222.167512) rotate(8.000000) translate(-245.251845, -222.167512) translate(158.080282, 191.145613)" fill="#D8D8D8" fill-rule="nonzero" stroke="#979797">
            <rect id="B-7" x="138.343127" y="0.669086938" width="36" height="28"></rect>
            <rect id="B-6" x="137.984499" y="34.0437987" width="36" height="28"></rect>
            <rect id="B-5" x="92.4482242" y="33.3747118" width="36" height="28"></rect>
            <rect id="B-4" x="92.8068523" y="1.35662521e-14" width="36" height="28"></rect>
            <rect id="B-3" x="47.4097506" y="0.321181131" width="36" height="28"></rect>
            <rect id="B-2" x="47.0511225" y="33.6958929" width="36" height="28"></rect>
            <rect id="B-1" x="-4.9391494e-15" y="15.0628076" width="36" height="28"></rect>
        </g>
        <g id="GroupA" transform="translate(239.709847, 151.518877) rotate(3.000000) translate(-239.709847, -151.518877) translate(88.032620, 133.351249)" fill="#D8D8D8" fill-rule="nonzero" stroke="#979797">
            <rect id="A-1" x="2.14843962e-14" y="0.794911639" width="27" height="35"></rect>
            <rect id="A-2" x="33.0594466" y="1.06508415" width="27" height="35"></rect>
            <rect id="A-3" x="66.1188931" y="1.33525667" width="27" height="35"></rect>
            <rect id="A-4" x="101.123263" y="0.502127732" width="27" height="35"></rect>
            <rect id="A-5" x="136.179968" y="0.667628333" width="27" height="35"></rect>
            <rect id="A-6" x="171.236674" y="0.833128934" width="27" height="35"></rect>
            <rect id="A-7" x="206.241044" y="7.98197187e-15" width="27" height="35"></rect>
            <rect id="A-8" x="241.297749" y="0.165500601" width="27" height="35"></rect>
            <rect id="A-9" x="276.354455" y="0.331001202" width="27" height="35"></rect>
        </g>
    </g>
</svg>